<?xml version="1.0" encoding="UTF-8" standalone="no"?>
<svg width="800" height="500" xmlns="http://www.w3.org/2000/svg">
  <!-- Background -->
  <rect width="800" height="500" fill="#f8f9fa" />
  
  <!-- Title -->
  <text x="400" y="30" font-family="Arial" font-size="20" text-anchor="middle" font-weight="bold">SevenToDie Autonomous Development System</text>
  
  <!-- GitHub Repository Box -->
  <rect x="50" y="60" width="700" height="380" rx="10" ry="10" fill="#e9ecef" stroke="#adb5bd" stroke-width="2" />
  <text x="400" y="80" font-family="Arial" font-size="16" text-anchor="middle" font-weight="bold">GitHub Repository</text>
  
  <!-- Plugin Code Box -->
  <rect x="80" y="100" width="200" height="120" rx="5" ry="5" fill="#ffffff" stroke="#adb5bd" stroke-width="2" />
  <text x="180" y="120" font-family="Arial" font-size="14" text-anchor="middle" font-weight="bold">Minecraft Plugin</text>
  <text x="180" y="145" font-family="Arial" font-size="12" text-anchor="middle">Java Code</text>
  <text x="180" y="165" font-family="Arial" font-size="12" text-anchor="middle">Resources</text>
  <text x="180" y="185" font-family="Arial" font-size="12" text-anchor="middle">Build Files</text>
  
  <!-- Dashboard Box -->
  <rect x="80" y="240" width="200" height="120" rx="5" ry="5" fill="#ffffff" stroke="#adb5bd" stroke-width="2" />
  <text x="180" y="260" font-family="Arial" font-size="14" text-anchor="middle" font-weight="bold">Dashboard</text>
  <text x="180" y="285" font-family="Arial" font-size="12" text-anchor="middle">Next.js UI</text>
  <text x="180" y="305" font-family="Arial" font-size="12" text-anchor="middle">Statistics</text>
  <text x="180" y="325" font-family="Arial" font-size="12" text-anchor="middle">Activity Logs</text>
  
  <!-- AI System Box -->
  <rect x="320" y="100" width="400" height="320" rx="5" ry="5" fill="#ffffff" stroke="#6c757d" stroke-width="2" />
  <text x="520" y="120" font-family="Arial" font-size="14" text-anchor="middle" font-weight="bold">AI Autonomous System</text>
  
  <!-- AI Components -->
  <rect x="340" y="140" width="160" height="80" rx="5" ry="5" fill="#e6f7ff" stroke="#1890ff" stroke-width="1" />
  <text x="420" y="165" font-family="Arial" font-size="12" text-anchor="middle" font-weight="bold">Issue Triage</text>
  <text x="420" y="185" font-family="Arial" font-size="10" text-anchor="middle">Analyzes & Labels Issues</text>
  
  <rect x="520" y="140" width="160" height="80" rx="5" ry="5" fill="#e6f7ff" stroke="#1890ff" stroke-width="1" />
  <text x="600" y="165" font-family="Arial" font-size="12" text-anchor="middle" font-weight="bold">PR Conversation</text>
  <text x="600" y="185" font-family="Arial" font-size="10" text-anchor="middle">Responds to Comments</text>
  
  <rect x="340" y="240" width="160" height="80" rx="5" ry="5" fill="#e6f7ff" stroke="#1890ff" stroke-width="1" />
  <text x="420" y="265" font-family="Arial" font-size="12" text-anchor="middle" font-weight="bold">Self-Test & Fix</text>
  <text x="420" y="285" font-family="Arial" font-size="10" text-anchor="middle">Identifies & Fixes Issues</text>
  
  <rect x="520" y="240" width="160" height="80" rx="5" ry="5" fill="#e6f7ff" stroke="#1890ff" stroke-width="1" />
  <text x="600" y="265" font-family="Arial" font-size="12" text-anchor="middle" font-weight="bold">Implementation</text>
  <text x="600" y="285" font-family="Arial" font-size="10" text-anchor="middle">Creates PRs with Fixes</text>
  
  <rect x="430" y="340" width="160" height="60" rx="5" ry="5" fill="#e6f7ff" stroke="#52c41a" stroke-width="1" />
  <text x="510" y="365" font-family="Arial" font-size="12" text-anchor="middle" font-weight="bold">OpenAI API</text>
  <text x="510" y="385" font-family="Arial" font-size="10" text-anchor="middle">GPT-4 Integration</text>
  
  <!-- Connection Lines -->
  <!-- Plugin to AI -->
  <line x1="280" y1="150" x2="320" y2="170" stroke="#6c757d" stroke-width="1.5" stroke-dasharray="5,3" />
  <text x="300" y="140" font-family="Arial" font-size="10" fill="#6c757d">Code Analysis</text>
  
  <!-- AI to Plugin -->
  <line x1="320" y1="200" x2="280" y2="180" stroke="#6c757d" stroke-width="1.5" stroke-dasharray="5,3" />
  <text x="300" y="210" font-family="Arial" font-size="10" fill="#6c757d">Code Changes</text>
  
  <!-- AI to Dashboard -->
  <line x1="320" y1="280" x2="280" y2="280" stroke="#6c757d" stroke-width="1.5" stroke-dasharray="5,3" />
  <text x="300" y="270" font-family="Arial" font-size="10" fill="#6c757d">Updates</text>
  
  <!-- External GitHub API -->
  <rect x="400" y="425" width="200" height="30" rx="15" ry="15" fill="#ffffff" stroke="#6c757d" stroke-width="1" />
  <text x="500" y="445" font-family="Arial" font-size="12" text-anchor="middle">GitHub API</text>
  
  <!-- Connection to GitHub API -->
  <line x1="500" y1="420" x2="500" y2="425" stroke="#6c757d" stroke-width="1.5" />
</svg>