<?xml version="1.0" encoding="UTF-8" standalone="no"?>
<svg width="800" height="480" xmlns="http://www.w3.org/2000/svg">
  <!-- Background -->
  <rect width="800" height="480" fill="#F8F9FA" />
  
  <!-- Dashboard Header -->
  <rect x="0" y="0" width="800" height="60" fill="#FFFFFF" stroke="#E9ECEF" stroke-width="1" />
  <text x="30" y="37" font-family="Arial" font-size="18" font-weight="bold" fill="#212529">SevenToDie Plugin Dashboard</text>
  
  <!-- Tab Navigation -->
  <rect x="0" y="60" width="800" height="40" fill="#FFFFFF" stroke="#E9ECEF" stroke-width="1" />
  <rect x="30" y="60" width="100" height="40" fill="#6610F2" />
  <text x="80" y="85" font-family="Arial" font-size="14" fill="#FFFFFF" text-anchor="middle">Overview</text>
  <text x="180" y="85" font-family="Arial" font-size="14" fill="#495057" text-anchor="middle">AI Interactions</text>
  <text x="300" y="85" font-family="Arial" font-size="14" fill="#495057" text-anchor="middle">Implementations</text>
  <text x="410" y="85" font-family="Arial" font-size="14" fill="#495057" text-anchor="middle">System Health</text>
  <text x="520" y="85" font-family="Arial" font-size="14" fill="#495057" text-anchor="middle">Self-Repair</text>
  
  <!-- Dashboard Grid Layout -->
  <!-- Top Row Cards -->
  <rect x="30" y="120" width="170" height="120" rx="6" ry="6" fill="#FFFFFF" stroke="#E9ECEF" stroke-width="1" />
  <text x="45" y="145" font-family="Arial" font-size="14" font-weight="bold" fill="#212529">AI Interactions</text>
  <text x="45" y="180" font-family="Arial" font-size="24" font-weight="bold" fill="#6610F2">128</text>
  <text x="45" y="210" font-family="Arial" font-size="12" fill="#6C757D">Last 30 days</text>
  
  <rect x="220" y="120" width="170" height="120" rx="6" ry="6" fill="#FFFFFF" stroke="#E9ECEF" stroke-width="1" />
  <text x="235" y="145" font-family="Arial" font-size="14" font-weight="bold" fill="#212529">Auto-Generated PRs</text>
  <text x="235" y="180" font-family="Arial" font-size="24" font-weight="bold" fill="#20C997">42</text>
  <text x="235" y="210" font-family="Arial" font-size="12" fill="#6C757D">87% success rate</text>
  
  <rect x="410" y="120" width="360" height="120" rx="6" ry="6" fill="#FFFFFF" stroke="#E9ECEF" stroke-width="1" />
  <text x="425" y="145" font-family="Arial" font-size="14" font-weight="bold" fill="#212529">System Health</text>
  
  <!-- Health status indicators -->
  <circle cx="445" cy="175" r="8" fill="#20C997" />
  <text x="460" y="180" font-family="Arial" font-size="12" fill="#212529">AI System</text>
  
  <circle cx="545" cy="175" r="8" fill="#20C997" />
  <text x="560" y="180" font-family="Arial" font-size="12" fill="#212529">Workflows</text>
  
  <circle cx="645" cy="175" r="8" fill="#20C997" />
  <text x="660" y="180" font-family="Arial" font-size="12" fill="#212529">Plugin</text>
  
  <text x="425" y="210" font-family="Arial" font-size="12" fill="#6C757D">All systems operational</text>
  
  <!-- Middle Charts -->
  <rect x="30" y="260" width="455" height="200" rx="6" ry="6" fill="#FFFFFF" stroke="#E9ECEF" stroke-width="1" />
  <text x="45" y="285" font-family="Arial" font-size="14" font-weight="bold" fill="#212529">AI Activity</text>
  
  <!-- Activity bar chart -->
  <line x1="60" y1="400" x2="460" y2="400" stroke="#E9ECEF" stroke-width="2" />
  <line x1="60" y1="400" x2="60" y2="300" stroke="#E9ECEF" stroke-width="2" />
  
  <!-- Chart bars -->
  <rect x="90" y="355" width="15" height="45" fill="#6610F2" opacity="0.7" />
  <rect x="120" y="370" width="15" height="30" fill="#6610F2" opacity="0.7" />
  <rect x="150" y="340" width="15" height="60" fill="#6610F2" opacity="0.7" />
  <rect x="180" y="320" width="15" height="80" fill="#6610F2" opacity="0.7" />
  <rect x="210" y="350" width="15" height="50" fill="#6610F2" opacity="0.7" />
  <rect x="240" y="330" width="15" height="70" fill="#6610F2" opacity="0.7" />
  <rect x="270" y="310" width="15" height="90" fill="#6610F2" opacity="0.7" />
  <rect x="300" y="360" width="15" height="40" fill="#6610F2" opacity="0.7" />
  <rect x="330" y="345" width="15" height="55" fill="#6610F2" opacity="0.7" />
  <rect x="360" y="325" width="15" height="75" fill="#6610F2" opacity="0.7" />
  <rect x="390" y="370" width="15" height="30" fill="#6610F2" opacity="0.7" />
  <rect x="420" y="350" width="15" height="50" fill="#6610F2" opacity="0.7" />
  
  <!-- Right side panel -->
  <rect x="505" y="260" width="265" height="200" rx="6" ry="6" fill="#FFFFFF" stroke="#E9ECEF" stroke-width="1" />
  <text x="520" y="285" font-family="Arial" font-size="14" font-weight="bold" fill="#212529">Recent Activities</text>
  
  <!-- Activity list -->
  <line x1="520" y1="305" x2="755" y2="305" stroke="#E9ECEF" stroke-width="1" />
  
  <circle cx="530" cy="325" r="6" fill="#20C997" />
  <text x="545" y="330" font-family="Arial" font-size="12" fill="#212529">Auto-fixed workflow issue</text>
  <text x="725" y="330" font-family="Arial" font-size="10" fill="#6C757D" text-anchor="end">2h ago</text>
  
  <line x1="520" y1="345" x2="755" y2="345" stroke="#E9ECEF" stroke-width="1" />
  
  <circle cx="530" cy="365" r="6" fill="#0D6EFD" />
  <text x="545" y="370" font-family="Arial" font-size="12" fill="#212529">PR #42 created for Issue #98</text>
  <text x="725" y="370" font-family="Arial" font-size="10" fill="#6C757D" text-anchor="end">8h ago</text>
  
  <line x1="520" y1="385" x2="755" y2="385" stroke="#E9ECEF" stroke-width="1" />
  
  <circle cx="530" cy="405" r="6" fill="#0D6EFD" />
  <text x="545" y="410" font-family="Arial" font-size="12" fill="#212529">System self-test completed</text>
  <text x="725" y="410" font-family="Arial" font-size="10" fill="#6C757D" text-anchor="end">1d ago</text>
  
  <line x1="520" y1="425" x2="755" y2="425" stroke="#E9ECEF" stroke-width="1" />
  
  <circle cx="530" cy="445" r="6" fill="#20C997" />
  <text x="545" y="450" font-family="Arial" font-size="12" fill="#212529">Dashboard updated</text>
  <text x="725" y="450" font-family="Arial" font-size="10" fill="#6C757D" text-anchor="end">2d ago</text>
</svg>